<?xml version="1.0" standalone="no"?>
<!DOCTYPE svg PUBLIC "-//W3C//DTD SVG 20010904//EN"
 "http://www.w3.org/TR/2001/REC-SVG-20010904/DTD/svg10.dtd">
<svg version="1.0" xmlns="http://www.w3.org/2000/svg"
 width="512.000000pt" height="512.000000pt" viewBox="0 0 512.000000 512.000000"
 preserveAspectRatio="xMidYMid meet">

<g transform="translate(0.000000,512.000000) scale(0.100000,-0.100000)"
fill="#3167cb" stroke="none">
<path d="M3480 4524 c-179 -63 -374 -130 -435 -150 -60 -20 -123 -42 -140 -49
-16 -7 -231 -82 -478 -166 -323 -111 -441 -156 -425 -160 13 -4 66 -15 118
-24 333 -60 659 -237 885 -478 44 -47 89 -98 100 -112 27 -35 52 -67 65 -82 5
-7 10 -17 10 -23 0 -5 5 -10 10 -10 6 0 10 -7 10 -15 0 -8 3 -15 8 -15 4 0 12
-9 17 -20 6 -10 34 -65 63 -122 133 -256 196 -571 172 -862 -14 -184 -57 -366
-116 -494 -13 -29 -24 -57 -24 -62 0 -14 -43 -94 -52 -98 -5 -2 -6 -8 -2 -13
3 -5 1 -9 -5 -9 -5 0 -13 -10 -17 -22 -3 -12 -15 -30 -25 -41 -10 -11 -16 -24
-13 -29 3 -4 0 -8 -5 -8 -6 0 -11 -6 -11 -14 0 -8 -7 -17 -16 -20 -8 -3 -13
-10 -10 -15 3 -5 -1 -11 -9 -15 -8 -3 -15 -11 -15 -18 0 -7 -9 -19 -20 -26
-11 -7 -20 -17 -20 -23 0 -6 -13 -22 -30 -35 -16 -14 -29 -29 -27 -33 3 -11
-116 -131 -130 -131 -7 0 -22 -13 -35 -30 -12 -16 -28 -30 -35 -30 -8 0 -16
-7 -19 -15 -4 -8 -13 -15 -20 -15 -8 0 -17 -7 -20 -15 -4 -8 -12 -15 -20 -15
-8 0 -14 -4 -14 -10 0 -5 -6 -10 -13 -10 -7 0 -22 -8 -33 -19 -11 -10 -30 -22
-42 -25 -12 -4 -22 -11 -22 -16 0 -4 -12 -11 -26 -14 -15 -4 -23 -11 -18 -16
10 -9 698 -160 1094 -240 181 -37 267 -50 298 -46 88 12 163 72 203 161 30 67
30 192 0 285 -44 137 -26 216 70 315 38 40 69 79 69 89 0 22 -34 89 -54 105
-27 22 -19 46 19 60 41 14 82 64 91 110 5 24 -1 47 -26 97 -45 92 -52 121 -39
168 14 51 59 94 145 136 96 48 178 113 224 177 68 95 64 132 -30 288 -46 76
-97 140 -376 477 -130 157 -154 201 -174 320 -15 96 -12 211 10 343 22 131 25
244 10 323 -5 27 -50 155 -101 283 -101 260 -121 290 -188 288 -20 0 -182 -52
-361 -115z"/>
<path d="M1670 3670 l0 -100 95 0 95 0 0 100 0 100 -95 0 -95 0 0 -100z"/>
<path d="M990 3750 c-25 -6 -52 -13 -60 -17 -8 -3 -17 -7 -20 -8 -31 -8 -50
-18 -50 -26 0 -5 -3 -8 -7 -7 -5 1 -27 -17 -51 -40 -24 -23 -39 -42 -35 -42 4
0 2 -4 -5 -9 -23 -14 -61 -136 -78 -253 -19 -133 -14 -418 10 -533 16 -78 51
-178 69 -198 7 -7 17 -22 23 -32 19 -34 135 -94 215 -111 56 -12 105 -15 204
-10 110 5 280 27 290 38 1 2 0 37 -2 79 l-5 76 -47 -10 c-25 -5 -125 -10 -221
-11 -169 -1 -176 0 -220 24 -98 55 -130 165 -130 450 0 213 23 344 72 405 40
52 92 69 221 73 64 2 162 -1 218 -8 56 -6 102 -10 104 -8 1 2 6 35 10 74 l7
71 -89 18 c-102 19 -357 29 -423 15z"/>
<path d="M2332 3409 c-29 -5 -63 -14 -75 -21 -12 -7 -25 -11 -29 -10 -5 1 -8
-2 -8 -8 0 -5 -7 -10 -15 -10 -8 0 -15 -4 -15 -10 0 -5 -6 -10 -13 -10 -17 0
-49 -34 -41 -43 4 -4 -1 -9 -10 -13 -9 -3 -16 -12 -16 -20 0 -8 -5 -14 -11
-14 -5 0 -7 -4 -4 -10 3 -5 1 -10 -4 -10 -6 0 -10 -3 -9 -7 1 -5 -4 -21 -11
-38 -36 -88 -49 -331 -23 -445 11 -47 47 -135 62 -150 3 -3 10 -14 16 -25 6
-11 45 -37 86 -59 67 -34 87 -39 166 -44 87 -5 231 8 345 29 l57 12 0 68 c0
69 0 69 -25 63 -14 -4 -110 -7 -213 -8 -170 -1 -191 1 -227 20 -48 24 -81 83
-91 162 l-7 52 290 0 290 0 7 38 c10 62 6 184 -8 243 -18 80 -77 181 -123 211
-82 53 -226 78 -341 57z m206 -163 c15 -8 36 -25 47 -38 20 -24 44 -119 45
-175 l0 -33 -206 0 -207 0 6 66 c8 88 39 149 86 174 45 24 187 28 229 6z"/>
<path d="M1670 2940 l0 -460 95 0 95 0 0 460 0 460 -95 0 -95 0 0 -460z"/>
<path d="M1470 1690 l0 -610 90 0 90 0 0 610 0 610 -90 0 -90 0 0 -610z"/>
<path d="M1868 1690 l2 -611 283 3 c264 4 286 6 345 27 119 44 205 150 248
306 24 89 31 395 11 500 -30 157 -90 270 -165 311 -112 62 -144 67 -447 72
l-280 4 3 -612z m573 422 c62 -30 76 -47 107 -134 25 -70 27 -82 27 -273 0
-170 -3 -209 -19 -260 -11 -33 -19 -63 -18 -67 1 -5 -3 -8 -9 -8 -5 0 -7 -4
-4 -10 3 -5 1 -10 -4 -10 -6 0 -11 -4 -11 -10 0 -10 -40 -55 -50 -55 -3 -1
-21 -10 -40 -20 -30 -17 -59 -20 -202 -23 l-168 -4 0 452 0 452 173 -4 c153
-3 177 -6 218 -26z"/>
</g>
</svg>
